<?xml version="1.0" encoding="UTF-8"?>
<svg xmlns="http://www.w3.org/2000/svg" viewBox="0 0 18.66 18.66">
    <rect class="action-icon-bg" x=".67" y=".67" width="17.33" height="17.33" rx="8.66" ry="8.66" />
    <path class="action-icon-outline" d="m9.33,18.66C4.19,18.66,0,14.47,0,9.33S4.19,0,9.33,0s9.33,4.19,9.33,9.33-4.19,9.33-9.33,9.33Zm0-17.33C4.92,1.33,1.33,4.92,1.33,9.33s3.59,8,8,8,8-3.59,8-8S13.74,1.33,9.33,1.33Z"/>
    <path d="m10.03,8.63c.23.23.23.61,0,.85l-1.76,1.76c-.23.23-.61.23-.85,0-.23-.23-.23-.61,0-.85l1.76-1.76c.23-.23.61-.23.85,0Z" style="fill:#fff; fill-rule:evenodd;"/>
    <path d="m12.35,6.23h0l-7.09,2.36s-.02.01-.03.02c0,0,0,.02-.01.03,0,.01,0,.03,0,.03,0,0,0,.01.02.02l2.87,1.6c.1.05.18.14.23.23l1.6,2.87s.02.02.02.02c0,0,.02,0,.03,0,.01,0,.03,0,.03-.01,0,0,.01,0,.02-.03l2.36-7.09s0-.03,0-.03c0,0,0-.02-.02-.03,0,0-.02-.01-.03-.02,0,0-.01,0-.03,0Zm-.38-1.14c.98-.33,1.92.61,1.59,1.59l-2.36,7.09c-.35,1.04-1.76,1.17-2.29.21,0,0,0,0,0,0l-1.51-2.72-2.72-1.51s0,0,0,0c-.96-.53-.82-1.94.21-2.29,0,0,0,0,0,0l7.09-2.36Z" style="fill:#fff; fill-rule:evenodd;"/>
</svg>