<?xml version="1.0" encoding="UTF-8"?>
<svg xmlns="http://www.w3.org/2000/svg" viewBox="0 0 18.66 18.66">
    <rect class="action-icon-bg" x=".67" y=".67" width="17.33" height="17.33" rx="8.66" ry="8.66" />
    <path class="action-icon-outline" d="m9.33,18.66C4.19,18.66,0,14.47,0,9.33S4.19,0,9.33,0s9.33,4.19,9.33,9.33-4.19,9.33-9.33,9.33Zm0-17.33C4.92,1.33,1.33,4.92,1.33,9.33s3.59,8,8,8,8-3.59,8-8S13.74,1.33,9.33,1.33Z"/>
    <path d="m14.27,7.53l-.85-1.97c-.13-.29-.19-.44-.29-.55-.09-.09-.2-.17-.32-.21-.14-.05-.3-.05-.62-.05h-5.75c-.32,0-.48,0-.62.05-.12.04-.23.12-.32.21-.1.11-.16.25-.29.55l-.85,1.97h9.89Z" fill="#fff"/>
    <path d="m5.16,9.96c.23.08.47.13.73.13.42,0,.82-.12,1.15-.34.33.21.72.34,1.15.34s.82-.12,1.15-.34c.33.21.72.34,1.15.34s.82-.12,1.15-.34c.33.21.72.34,1.15.34.26,0,.5-.05.73-.13v2.62c0,.47,0,.7-.09.88-.08.16-.21.28-.36.36-.18.09-.41.09-.88.09h-5.67c-.47,0-.7,0-.88-.09-.16-.08-.28-.21-.36-.36-.09-.18-.09-.41-.09-.88v-2.62Zm.83,1.7c0-.23,0-.35.05-.44.04-.08.1-.14.18-.18.09-.05.21-.05.44-.05h1.58c.23,0,.35,0,.44.05.08.04.14.1.18.18.05.09.05.21.05.44v.75c0,.23,0,.35-.05.44-.04.08-.1.14-.18.18-.09.05-.21.05-.44.05h-1.58c-.23,0-.35,0-.44-.05-.08-.04-.14-.1-.18-.18-.05-.09-.05-.21-.05-.44v-.75Z" fill="#fff" fill-rule="evenodd"/>
    <path d="m5.89,9.54c-.83,0-1.51-.64-1.56-1.46h10c-.05.81-.73,1.46-1.56,1.46-.45,0-.86-.19-1.15-.5-.29.31-.69.5-1.15.5s-.86-.19-1.15-.5c-.29.31-.69.5-1.15.5s-.86-.19-1.15-.5c-.29.31-.69.5-1.15.5Z"  fill="#fff"/>
</svg>