<?xml version="1.0" encoding="UTF-8"?>
<svg xmlns="http://www.w3.org/2000/svg" viewBox="0 0 18.66 18.66">
    <rect class="action-icon-bg" x=".67" y=".67" width="17.33" height="17.33" rx="8.66" ry="8.66" />
    <path class="action-icon-outline" d="m9.33,18.66C4.19,18.66,0,14.47,0,9.33S4.19,0,9.33,0s9.33,4.19,9.33,9.33-4.19,9.33-9.33,9.33Zm0-17.33C4.92,1.33,1.33,4.92,1.33,9.33s3.59,8,8,8,8-3.59,8-8S13.74,1.33,9.33,1.33Z" />
    <path d="m4.53,6.03c0-.5.4-.9.9-.9h7.8c.5,0,.9.4.9.9v.6c0,.5-.4.9-.9.9h-7.8c-.5,0-.9-.4-.9-.9v-.6Z" style="fill:#fff; fill-rule:evenodd;"/>
    <path d="m12.33,9.33c.33,0,.6.27.6.6v3.6c0,.33-.27.6-.6.6s-.6-.27-.6-.6v-3.6c0-.33.27-.6.6-.6Z" style="fill:#fff; fill-rule:evenodd;"/>
    <path d="m10.41,11.61c.23-.23.61-.23.85,0l1.08,1.08,1.08-1.08c.23-.23.61-.23.85,0,.23.23.23.61,0,.85l-1.5,1.5c-.23.23-.61.23-.85,0l-1.5-1.5c-.23-.23-.23-.61,0-.85Z" style="fill:#fff; fill-rule:evenodd;"/>
    <path d="m9.56,13.3c-.34-.34-.53-.79-.53-1.27s.19-.93.53-1.27c.27-.27.61-.44.97-.5v-.32c0-.46.18-.88.47-1.2h-5.87v2.4c0,1.32,1.08,2.4,2.4,2.4h2.25l-.23-.23Z" style="fill:#fff;"/>
</svg>