<svg width="25" height="24" viewBox="0 0 25 24" xmlns="http://www.w3.org/2000/svg">
<path fill-rule="evenodd" clip-rule="evenodd" d="M11.8597 19.0581L6.45867 22.3012C5.89707 22.6384 5.16289 22.4655 4.81886 21.9151C4.65082 21.6462 4.60073 21.3222 4.67992 21.0167L5.516 17.7912C5.8178 16.6268 6.63071 15.6535 7.73563 15.1335L13.6278 12.3607C13.9025 12.2314 14.0183 11.9083 13.8864 11.6391C13.7796 11.421 13.5381 11.299 13.2949 11.3403L6.73613 12.4532C5.40288 12.6795 4.03564 12.3186 2.99856 11.4668L0.926583 9.76485C0.421795 9.35021 0.355514 8.61299 0.778542 8.11823C0.984286 7.87758 1.28015 7.72818 1.5995 7.7037L7.93001 7.2181C8.37725 7.18379 8.767 6.90638 8.9387 6.50016L11.3809 0.721816C11.633 0.125424 12.3305 -0.157763 12.939 0.089297C13.2312 0.207925 13.4633 0.435448 13.5843 0.721816L16.0265 6.50016C16.1982 6.90638 16.588 7.18379 17.0352 7.2181L23.4006 7.70637C24.0572 7.75673 24.5477 8.31927 24.4963 8.96285C24.4716 9.27244 24.3222 9.55967 24.0811 9.76113L19.2267 13.8176C18.8847 14.1032 18.7358 14.5527 18.8408 14.9807L20.3332 21.0576C20.4874 21.6852 20.0932 22.3164 19.453 22.4675C19.1453 22.5402 18.8208 22.4898 18.5509 22.3277L13.1056 19.0581C12.7233 18.8286 12.2419 18.8286 11.8597 19.0581Z" />
</svg>
