<svg width="25" height="24" viewBox="0 0 25 24" xmlns="http://www.w3.org/2000/svg">
<path fill-rule="evenodd" clip-rule="evenodd" d="M12.7638 12.8612C14.6825 12.8612 16.286 12.5396 16.6778 12.11C16.3451 11.7457 15.1416 11.4587 13.6131 11.3802V12.2878C13.3395 12.3019 13.055 12.3088 12.7636 12.3088C12.4721 12.3088 12.1876 12.3019 11.9134 12.2878V11.3802C10.3856 11.4587 9.1815 11.7457 8.84876 12.11C9.24119 12.5396 10.8449 12.8612 12.7636 12.8612H12.7638ZM16.1727 8.58916V9.83899H13.6131V10.7057C15.411 10.7983 16.7601 11.1792 16.7701 11.6351V12.5855C16.7601 13.0414 15.411 13.4215 13.6131 13.5144V15.6414H11.9137V13.5144C10.1159 13.4218 8.76732 13.0414 8.75728 12.5855V11.6351C8.76732 11.1792 10.1159 10.7983 11.9137 10.7057V9.83899H9.35415V8.58916H16.173H16.1727ZM8.34755 6.6001H17.333C17.5478 6.6001 17.7455 6.71206 17.8526 6.89396L20.4702 11.3492C20.6057 11.5804 20.5656 11.872 20.372 12.0592L13.1666 19.0307C12.9329 19.2566 12.5575 19.2566 12.3243 19.0307L5.12779 12.0686C4.93004 11.8767 4.89267 11.5768 5.03854 11.3445L7.83687 6.88014C7.94592 6.70653 8.13949 6.60037 8.34783 6.60037L8.34755 6.6001Z" fill="white"/>
</svg>
